<?xml version="1.0" ?><!DOCTYPE svg  PUBLIC '-//W3C//DTD SVG 1.1//EN'  'http://www.w3.org/Graphics/SVG/1.1/DTD/svg11.dtd'><svg enable-background="new 0 0 141.732 141.732" height="141.732px" id="Livello_1" version="1.1" viewBox="0 0 141.732 141.732" width="141.732px" xml:space="preserve" xmlns="http://www.w3.org/2000/svg" xmlns:xlink="http://www.w3.org/1999/xlink"><g id="Livello_25"><path d="M128.599,64.48c0,4.771-3.84,8.645-8.575,8.645c-4.736,0-8.576-3.871-8.576-8.645c0-4.777,3.84-8.648,8.576-8.648   S128.599,59.703,128.599,64.48 M121.861,43.27H17.763L34.812,6.707h0.09c0.756-1.891,2.656-3.232,4.887-3.232   c0.042,0,0.084,0.008,0.126,0.008V3.473h59.798V3.48c0.042,0,0.083-0.008,0.126-0.008c2.231,0,4.134,1.344,4.89,3.232h0.087   L121.861,43.27z M20.412,55.832c4.736,0,8.575,3.871,8.575,8.648c0,4.771-3.839,8.645-8.575,8.645   c-4.733,0-8.575-3.871-8.575-8.645C11.837,59.703,15.677,55.832,20.412,55.832 M140.308,75.984h0.007V52.977h-0.007   c0.001-0.047,0.007-0.094,0.007-0.143c0-4.809-3.859-8.707-8.646-8.779v-0.01h-3.525l-18.854-40.43h-0.096   c-0.834-2.086-2.914-3.574-5.365-3.613V0h-67.34v0.004c-2.448,0.042-4.526,1.527-5.359,3.613h-0.101l-18.854,40.43H8.788   C3.934,44.047,0,47.98,0,52.836c0,0.049,0.007,0.096,0.007,0.143H0v23.007h0.007c0,0.046-0.007,0.093-0.007,0.14   c0,4.855,3.937,8.789,8.788,8.789c0.521,0,1.03-0.055,1.527-0.145h1.188v13.75c-0.043,0.344-0.068,0.688-0.068,1.039   c0,4.771,4.019,8.645,8.978,8.645c4.958,0,8.979-3.871,8.979-8.645c0-0.354-0.028-0.695-0.071-1.039V84.77h81.634v13.75   c-0.043,0.344-0.068,0.688-0.068,1.039c0,4.771,4.021,8.646,8.979,8.646c4.957,0,8.978-3.871,8.978-8.646   c0-0.354-0.026-0.695-0.068-1.039V84.77H130c0.496,0.09,1.006,0.146,1.527,0.146c4.854,0,8.787-3.935,8.787-8.789   C140.314,76.078,140.309,76.031,140.308,75.984"/></g><g id="Livello_1_1_"/></svg>